<svg xmlns="http://www.w3.org/2000/svg" width="18.999" height="5" viewBox="0 0 18.999 5"><defs><style>.a{fill:#0f0d36;opacity:0.6;}</style></defs><path class="a" d="M-1844,6622.5a2.5,2.5,0,0,1,2.5-2.5,2.5,2.5,0,0,1,2.5,2.5,2.5,2.5,0,0,1-2.5,2.5A2.5,2.5,0,0,1-1844,6622.5Zm-7,0a2.5,2.5,0,0,1,2.5-2.5,2.5,2.5,0,0,1,2.5,2.5,2.5,2.5,0,0,1-2.5,2.5A2.5,2.5,0,0,1-1851,6622.5Zm-7,0a2.5,2.5,0,0,1,2.5-2.5,2.5,2.5,0,0,1,2.5,2.5,2.5,2.5,0,0,1-2.5,2.5A2.5,2.5,0,0,1-1858,6622.5Z" transform="translate(1858 -6620)"/></svg>