<svg xmlns="http://www.w3.org/2000/svg" width="16" height="16" viewBox="0 0 16 16"><defs><style>.a{fill:#18c9bd;}</style></defs><g transform="translate(-986 -281)"><path class="a" d="M11.467,16H4.532a4.4,4.4,0,0,1-3.287-1.32A4.835,4.835,0,0,1,0,11.267V4.733A4.833,4.833,0,0,1,1.247,1.321,4.4,4.4,0,0,1,4.532,0h6.936a4.4,4.4,0,0,1,3.287,1.32A4.835,4.835,0,0,1,16,4.733v6.535a4.834,4.834,0,0,1-1.245,3.412A4.4,4.4,0,0,1,11.467,16ZM4.532,1.2A3.22,3.22,0,0,0,1.2,4.733v6.535A3.22,3.22,0,0,0,4.532,14.8h6.935A3.221,3.221,0,0,0,14.8,11.267V4.733a3.664,3.664,0,0,0-.9-2.571A3.234,3.234,0,0,0,11.468,1.2Z" transform="translate(986 281)"/><path class="a" d="M5.872.176a.6.6,0,0,1,.907.781l-.058.067-3.8,3.8a.6.6,0,0,1-.781.058l-.067-.058-1.9-1.9a.6.6,0,0,1,.781-.907l.067.058L2.5,3.548Z" transform="translate(990.552 286.501)"/></g></svg>