<svg xmlns="http://www.w3.org/2000/svg" width="12" height="12" viewBox="0 0 12 12"><defs><style>.a{opacity:0.4;}.b{fill:none;stroke:#0f0d36;stroke-linecap:round;stroke-linejoin:round;stroke-miterlimit:10;}</style></defs><g class="a" transform="translate(-0.25 -0.251)"><path class="b" d="M9.205,0s-.352,4-.557,5.692a1.407,1.407,0,0,1-1.53,1.293q-2.539.042-5.078,0A1.389,1.389,0,0,1,.556,5.7C.35,3.994,0,0,0,0" transform="translate(1.648 4.745)"/><path class="b" d="M11,.5H0" transform="translate(0.75 2.325)"/><path class="b" d="M6.761,2.075a1.05,1.05,0,0,1-1.048-.787L5.556.564A.822.822,0,0,0,4.753,0H2.008a.822.822,0,0,0-.8.564l-.158.723A1.05,1.05,0,0,1,0,2.075" transform="translate(2.87 0.751)"/></g></svg>