<svg xmlns="http://www.w3.org/2000/svg" width="18" height="18" viewBox="0 0 18 18">
  <g id="vuesax_linear_dollar-circle" data-name="vuesax/linear/dollar-circle" transform="translate(-236 -572)">
    <g id="dollar-circle" transform="translate(236 572)">
      <path id="Vector" d="M0,5.242A1.7,1.7,0,0,0,1.665,6.99H3.547A1.491,1.491,0,0,0,5,5.467a1.312,1.312,0,0,0-.99-1.448L.99,2.97A1.312,1.312,0,0,1,0,1.522,1.491,1.491,0,0,1,1.455,0H3.337A1.7,1.7,0,0,1,5,1.747" transform="translate(6.504 5.505)" fill="none" stroke="#645cfc" stroke-linecap="round" stroke-linejoin="round" stroke-width="1.5"/>
      <path id="Vector-2" data-name="Vector" d="M0,0V9" transform="translate(9 4.5)" fill="none" stroke="#645cfc" stroke-linecap="round" stroke-linejoin="round" stroke-width="1.5"/>
      <path id="Vector-3" data-name="Vector" d="M15,7.5A7.5,7.5,0,1,1,7.5,0,7.5,7.5,0,0,1,15,7.5Z" transform="translate(1.5 1.5)" fill="none" stroke="#645cfc" stroke-linecap="round" stroke-linejoin="round" stroke-width="1.5"/>
      <path id="Vector-4" data-name="Vector" d="M0,0H18V18H0Z" fill="none" opacity="0"/>
    </g>
  </g>
</svg>
