<svg xmlns="http://www.w3.org/2000/svg" width="16" height="15.002" viewBox="0 0 16 15.002"><defs><style>.a{opacity:0.4;}.b{fill:#0f0d36;}</style></defs><g class="a" transform="translate(-0.122 -0.425)"><path class="b" d="M3.548,14.782A3.549,3.549,0,0,1,0,11.4l0-.167V7.326A3.54,3.54,0,0,1,3.369,3.791l.171,0h.754a.6.6,0,0,1,.081,1.194l-.081.005H3.54A2.34,2.34,0,0,0,1.2,7.188l0,.138v3.908a2.348,2.348,0,0,0,2.21,2.344l.138,0h8.913a2.339,2.339,0,0,0,2.335-2.2l0-.138V7.334A2.347,2.347,0,0,0,12.591,4.99l-.138,0h-.747a.6.6,0,0,1-.081-1.194l.081-.005h.747A3.547,3.547,0,0,1,16,7.168l0,.167v3.908a3.541,3.541,0,0,1-3.373,3.536l-.166,0Zm4.1-4.287-.005,0a.6.6,0,0,1-.058-.05l0,0L5.243,8.094a.6.6,0,0,1,.783-.9l.067.058L7.4,8.56V.38A.6.6,0,0,1,8.6.3L8.6.38V8.56L9.908,7.247a.6.6,0,0,1,.781-.059l.068.058a.6.6,0,0,1,.059.781l-.058.068L8.426,10.436a.591.591,0,0,1-.26.154h0l-.013,0h0l-.011,0h0l-.01,0h0l-.01,0h0l-.011,0h0l-.012,0h0l-.014,0-.061,0A.6.6,0,0,1,7.643,10.495Z" transform="translate(0.122 0.645)"/></g></svg>