<svg xmlns="http://www.w3.org/2000/svg" width="21" height="20" viewBox="0 0 21 20"><defs><style>.a{fill:#fff;}</style></defs><g transform="translate(-0.122 -0.425)"><path class="a" d="M4.656,20A4.69,4.69,0,0,1,0,15.492l0-.222v-5.21A4.687,4.687,0,0,1,4.421,5.348l.224-.006h.99a.8.8,0,0,1,.106,1.592l-.106.007h-.99A3.093,3.093,0,0,0,1.58,9.877l-.006.184v5.21a3.11,3.11,0,0,0,2.9,3.124l.181.006h11.7a3.091,3.091,0,0,0,3.065-2.936l.006-.184v-5.21a3.108,3.108,0,0,0-2.9-3.124l-.181-.006h-.98a.8.8,0,0,1-.106-1.592l.106-.007h.98A4.688,4.688,0,0,1,21,9.849l0,.222v5.21A4.688,4.688,0,0,1,16.573,20l-.219,0Zm5.375-5.715-.007-.006a.788.788,0,0,1-.076-.066l-.006-.006L6.881,11.084a.809.809,0,0,1,0-1.131.777.777,0,0,1,1.025-.074L8,9.955l1.716,1.751V.8A.787.787,0,0,1,11.281.691L11.288.8V11.706L13,9.955a.779.779,0,0,1,1.025-.079l.089.077a.81.81,0,0,1,.078,1.041l-.076.09-3.062,3.123a.773.773,0,0,1-.341.205h0l-.017,0h0l-.014,0h-.006l-.013,0h-.006l-.013,0h-.006l-.014,0h0l-.015,0h0l-.019,0c-.027,0-.054,0-.08,0A.776.776,0,0,1,10.031,14.285Z" transform="translate(0.122 0.425)"/></g></svg>