<svg id="edit-2" xmlns="http://www.w3.org/2000/svg" width="18" height="18" viewBox="0 0 18 18">
  <path id="Vector" d="M6.947,1.079.79,7.6a2.287,2.287,0,0,0-.5,1.073L.01,11.1a1.145,1.145,0,0,0,1.4,1.328l2.415-.412a2.153,2.153,0,0,0,1.042-.563l6.158-6.517c1.065-1.125,1.545-2.407-.113-3.975C9.265-.593,8.012-.046,6.947,1.079Z" transform="translate(2.998 1.621)" fill="none" stroke="#645cfc" stroke-linecap="round" stroke-linejoin="round" stroke-width="1"/>
  <path id="Vector-2" data-name="Vector" d="M0,0A4.6,4.6,0,0,0,4.087,3.862" transform="translate(8.918 3.787)" fill="none" stroke="#645cfc" stroke-linecap="round" stroke-linejoin="round" stroke-width="1"/>
  <path id="Vector-3" data-name="Vector" d="M0,0H13.5" transform="translate(2.25 16.5)" fill="none" stroke="#645cfc" stroke-linecap="round" stroke-linejoin="round" stroke-width="1"/>
  <path id="Vector-4" data-name="Vector" d="M0,0H18V18H0Z" fill="none" opacity="0"/>
</svg>
