<svg xmlns="http://www.w3.org/2000/svg" width="18" height="18" viewBox="0 0 18 18">
  <g id="edit" transform="translate(-620 -252)">
    <g id="edit-2" data-name="edit" transform="translate(620 252)">
      <path id="Vector" d="M6.75,0H5.25C1.5,0,0,1.5,0,5.25v4.5C0,13.5,1.5,15,5.25,15h4.5C13.5,15,15,13.5,15,9.75V8.25" transform="translate(1.5 1.5)" fill="none" stroke="#645cfc" stroke-linecap="round" stroke-linejoin="round" stroke-width="1"/>
      <path id="Vector-2" data-name="Vector" d="M6.743.953.833,6.863a2.034,2.034,0,0,0-.495.99L.016,10.111a1.068,1.068,0,0,0,1.275,1.275l2.257-.323a2.1,2.1,0,0,0,.99-.495l5.91-5.91c1.02-1.02,1.5-2.2,0-3.705S7.763-.067,6.743.953Z" transform="translate(5.287 1.312)" fill="none" stroke="#645cfc" stroke-linecap="round" stroke-linejoin="round" stroke-width="1"/>
      <path id="Vector-3" data-name="Vector" d="M0,0A5.358,5.358,0,0,0,3.705,3.7" transform="translate(11.182 3.112)" fill="none" stroke="#645cfc" stroke-linecap="round" stroke-linejoin="round" stroke-width="1"/>
      <path id="Vector-4" data-name="Vector" d="M0,0H18V18H0Z" fill="none" opacity="0"/>
    </g>
  </g>
</svg>
