<svg xmlns="http://www.w3.org/2000/svg" width="20" height="17" viewBox="0 0 20 17"><defs><style>.a{opacity:0.4;}.b{fill:#0f0d36;}</style></defs><g class="a" transform="translate(0)"><path class="b" d="M1.583,16.784a.73.73,0,0,1-.073-.961l.073-.083L3.555,13.8A14.434,14.434,0,0,1,.061,8.792a.725.725,0,0,1,0-.584A14.122,14.122,0,0,1,4.218,2.642,9.369,9.369,0,0,1,10,.575a9.253,9.253,0,0,1,5.269,1.7L17.357.216a.758.758,0,0,1,1.06,0,.73.73,0,0,1,.073.961l-.073.083L2.643,16.784a.758.758,0,0,1-1.06,0ZM5.148,3.8A12.437,12.437,0,0,0,1.617,8.4l-.047.1.045.1a12.7,12.7,0,0,0,3,4.154l2.138-2.1A3.764,3.764,0,0,1,6.086,8.5,3.878,3.878,0,0,1,10,4.648a3.943,3.943,0,0,1,2.187.657l2-1.971A7.689,7.689,0,0,0,10,2.052,7.86,7.86,0,0,0,5.148,3.8ZM7.586,8.5a2.312,2.312,0,0,0,.261,1.074l3.247-3.2A2.441,2.441,0,0,0,10,6.124,2.39,2.39,0,0,0,7.586,8.5ZM7.231,15.98a.736.736,0,0,1-.474-.934.753.753,0,0,1,.95-.466A7.35,7.35,0,0,0,10,14.948c3.3,0,6.381-2.262,8.273-6.118l.156-.328-.053-.117a14.364,14.364,0,0,0-1.285-2.21l-.241-.326A.731.731,0,0,1,17,4.814a.757.757,0,0,1,1.049.146,15.779,15.779,0,0,1,1.892,3.247.729.729,0,0,1,0,.586c-2.077,4.736-5.8,7.631-9.939,7.631A8.867,8.867,0,0,1,7.231,15.98Zm2.6-4.294a.738.738,0,0,1,.6-.858,2.388,2.388,0,0,0,1.932-1.906.748.748,0,0,1,.769-.607l.1.011a.74.74,0,0,1,.606.857,3.878,3.878,0,0,1-3.142,3.1.766.766,0,0,1-.135.012A.746.746,0,0,1,9.831,11.687Z"/></g></svg>