<svg xmlns="http://www.w3.org/2000/svg" width="78" height="77.087" viewBox="0 0 78 77.087"><defs><style>.a{fill:#645cfc;}.b{fill:#8b85fd;}.c{fill:#b1adfd;}</style></defs><path class="a" d="M266.719,86.576l-16.771,16.75a15.284,15.284,0,1,0-18.187,24.027,1.871,1.871,0,0,1,1.02,1.655v21.057a1.852,1.852,0,0,1-2.225,1.821,38.969,38.969,0,1,1,36.163-65.31Z" transform="translate(-199.82 -74.84)"/><path class="b" d="M335.563,127.347A38.808,38.808,0,0,1,331.59,144.5L310.134,134.39a15.272,15.272,0,0,0-2.444-17.52l16.771-16.75A38.823,38.823,0,0,1,335.563,127.347Z" transform="translate(-257.563 -88.384)"/><path class="c" d="M325.723,184.051A39.076,39.076,0,0,1,299,204.97a1.865,1.865,0,0,1-2.271-1.813V182.1a1.865,1.865,0,0,1,1.018-1.652,15.322,15.322,0,0,0,6.52-6.51Z" transform="translate(-251.696 -127.934)"/></svg>