<svg xmlns="http://www.w3.org/2000/svg" width="20" height="19.5" viewBox="0 0 20 19.5"><defs><style>.a{fill:#645cfc;}</style></defs><g transform="translate(-0.022 -0.022)"><path class="a" d="M4.318,19.5A4.322,4.322,0,0,1,0,15.379l0-.2V4.324A4.323,4.323,0,0,1,4.115,0l.2,0H9.065A4.322,4.322,0,0,1,13.38,4.121l0,.2v.909a.73.73,0,0,1-1.454.1l-.007-.1V4.324a2.86,2.86,0,0,0-2.69-2.857l-.168,0H4.318A2.86,2.86,0,0,0,1.465,4.156l0,.168V15.176A2.86,2.86,0,0,0,4.15,18.033l.168.005H9.075a2.85,2.85,0,0,0,2.844-2.683l0-.168v-.92a.731.731,0,0,1,1.455-.1l.006.1v.92a4.313,4.313,0,0,1-4.1,4.309l-.209,0ZM15.9,13.109a.732.732,0,0,1-.068-.952l.07-.082,1.6-1.594H7.544a.731.731,0,0,1-.1-1.456l.1-.006H17.5L15.9,7.426a.732.732,0,0,1-.074-.952l.071-.082a.731.731,0,0,1,.951-.073l.082.07,2.852,2.842a.729.729,0,0,1,.209.425h0l0,.017v0l0,.017h0q0,.028,0,.056h0v0s0,.01,0,.015v0s0,.008,0,.012v.046a.728.728,0,0,1-.071.246v0l-.006.012-.005.01,0,0-.007.013h0l-.008.013h0l-.008.013h0l-.008.012v0l-.007.011,0,0-.007.009,0,0,0,0h0a.735.735,0,0,1-.088.1l-2.835,2.826a.729.729,0,0,1-1.032,0Z" transform="translate(0.022 0.022)"/></g></svg>