<svg xmlns="http://www.w3.org/2000/svg" width="12" height="11" viewBox="0 0 12 11"><defs><style>.a{opacity:0.4;}.b{fill:#0f0d36;}</style></defs><g class="a"><path class="b" d="M8.964,11H3.036A3.065,3.065,0,0,1,0,7.914V3.086A3.065,3.065,0,0,1,3.036,0H8.964a3.027,3.027,0,0,1,2.148.905A3.092,3.092,0,0,1,12,3.086V7.914A3.065,3.065,0,0,1,8.964,11ZM2.421,3.206a.436.436,0,0,0-.321.137.473.473,0,0,0-.043.611l.079.079L4.866,6.2a1.856,1.856,0,0,0,1.17.415A1.886,1.886,0,0,0,7.211,6.2L9.918,4l.048-.049a.48.48,0,0,0-.007-.611.5.5,0,0,0-.317-.159H9.617a.451.451,0,0,0-.312.123L6.6,5.5a.929.929,0,0,1-.6.22.945.945,0,0,1-.6-.22L2.7,3.3A.461.461,0,0,0,2.421,3.206Z" transform="translate(0)"/></g></svg>