<svg xmlns="http://www.w3.org/2000/svg" width="17" height="20" viewBox="0 0 17 20"><defs><style>.a{fill:#0f0d36;opacity:0.6;}</style></defs><g transform="translate(0 0)"><path class="a" d="M4.57,20A4.583,4.583,0,0,1,0,15.307V4.522A4.439,4.439,0,0,1,1.355,1.337,4.57,4.57,0,0,1,4.57.012h6.239a.748.748,0,0,1,.264,0h.13a.749.749,0,0,1,.539.232l5.049,5.312A.761.761,0,0,1,17,6.079v9.228A4.645,4.645,0,0,1,12.534,20Zm0-18.478a3.078,3.078,0,0,0-3.074,3V15.307a3.233,3.233,0,0,0,.886,2.264,3.012,3.012,0,0,0,2.188.919h7.965a2.882,2.882,0,0,0,2.083-.952,3.309,3.309,0,0,0,.886-2.23V7.03l-.872,0-1.132,0a3.328,3.328,0,0,1-3.3-3.158l-.005-.189V1.521Zm7.119,2.162A1.827,1.827,0,0,0,13.5,5.521h1.182l-3-3.152ZM5.371,14.4a.756.756,0,0,1-.1-1.5l.1-.006h5.381a.756.756,0,0,1,.1,1.5l-.1.006Zm0-4.986a.756.756,0,0,1-.1-1.5l.1-.007H8.716a.756.756,0,0,1,.1,1.5l-.1.007Z" transform="translate(0 0)"/></g></svg>