<svg xmlns="http://www.w3.org/2000/svg" width="17.168" height="20" viewBox="0 0 17.168 20"><defs><style>.a{fill:#645cfc;}</style></defs><g transform="translate(0 0)"><path class="a" d="M4.615,20A4.6,4.6,0,0,1,0,15.307V4.522A4.418,4.418,0,0,1,1.368,1.337,4.639,4.639,0,0,1,4.615.012h6.3a.763.763,0,0,1,.267,0h.131a.76.76,0,0,1,.545.232l5.1,5.312a.757.757,0,0,1,.211.524v9.228A4.666,4.666,0,0,1,12.659,20Zm0-18.478a3.094,3.094,0,0,0-3.1,3V15.307A3.216,3.216,0,0,0,2.4,17.571a3.057,3.057,0,0,0,2.21.919h8.044a2.924,2.924,0,0,0,2.1-.952,3.291,3.291,0,0,0,.9-2.23V7.03l-.881,0-1.144,0A3.347,3.347,0,0,1,10.3,3.874l-.005-.189V1.521ZM11.8,3.684a1.836,1.836,0,0,0,1.832,1.837H14.83L11.8,2.369ZM5.424,14.4a.755.755,0,0,1-.1-1.5l.1-.006h5.434a.755.755,0,0,1,.1,1.5l-.1.006Zm0-4.986a.755.755,0,0,1-.1-1.5l.1-.007H8.8a.755.755,0,0,1,.1,1.5l-.1.007Z" transform="translate(0 0)"/></g></svg>