<svg id="trash" xmlns="http://www.w3.org/2000/svg" width="18" height="18" viewBox="0 0 18 18">
  <path id="Vector" d="M13.5.375C11,.127,8.49,0,5.985,0A44.3,44.3,0,0,0,1.53.225L0,.375" transform="translate(2.25 4.11)" fill="none" stroke="#f64d4d" stroke-linecap="round" stroke-linejoin="round" stroke-width="1"/>
  <path id="Vector-2" data-name="Vector" d="M0,2.227l.165-.982C.285.533.375,0,1.642,0H3.608C4.875,0,4.972.563,5.085,1.252l.165.975" transform="translate(6.375 1.5)" fill="none" stroke="#f64d4d" stroke-linecap="round" stroke-linejoin="round" stroke-width="1"/>
  <path id="Vector-3" data-name="Vector" d="M10.275,0,9.788,7.552c-.082,1.177-.15,2.093-2.243,2.093H2.73C.637,9.645.57,8.73.488,7.552L0,0" transform="translate(3.863 6.855)" fill="none" stroke="#f64d4d" stroke-linecap="round" stroke-linejoin="round" stroke-width="1"/>
  <path id="Vector-4" data-name="Vector" d="M0,0H2.5" transform="translate(7.748 12.375)" fill="none" stroke="#f64d4d" stroke-linecap="round" stroke-linejoin="round" stroke-width="1"/>
  <path id="Vector-5" data-name="Vector" d="M0,0H3.75" transform="translate(7.125 9.375)" fill="none" stroke="#f64d4d" stroke-linecap="round" stroke-linejoin="round" stroke-width="1"/>
  <path id="Vector-6" data-name="Vector" d="M0,0H18V18H0Z" fill="none" opacity="0"/>
</svg>
