<svg xmlns="http://www.w3.org/2000/svg" width="165.455" height="26" viewBox="0 0 165.455 26"><defs><style>.a{fill:#645cfc;}.b{fill:#8b85fd;}.c{fill:#b1adfd;}.d{fill:#0f0d36;}</style></defs><g transform="translate(-120 -24)"><path class="a" d="M6.594-29.921v-3.171A18.587,18.587,0,0,0,6.441-36.2L8.8-29.921h2.344l2.374-6.28a31.9,31.9,0,0,0-.123,3.906v2.374H15.83V-41.256H13.395L9.979-32.8,6.594-41.256H4.235v11.335Zm10.83,3.676c1.225.276,3.676.735,4.748-2.007l3.646-9.328H23.305L21.5-32.571l-1.823-5.009H17.1l3.278,8.088-.077.2c-.352.965-.567,1.072-1.547,1.072h-1.3ZM35.8-33.673a3.576,3.576,0,0,0,3.875-3.8,3.526,3.526,0,0,0-3.845-3.783H31.225v11.335h2.481v-3.753Zm-.46-5.392a1.523,1.523,0,0,1,1.716,1.547,1.568,1.568,0,0,1-1.716,1.7H33.706v-3.247Zm11.013,1.486c-1.088-.26-2.512-.092-2.972.842l-.123-.827H41.089v7.643h2.374v-3.324a2,2,0,0,1,2.144-2.282h.751Zm.628,3.814a3.823,3.823,0,0,0,4.074,4.028,3.819,3.819,0,0,0,4.059-4.028,3.831,3.831,0,0,0-4.059-4.044A3.835,3.835,0,0,0,46.986-33.765Zm2.374-.015a1.713,1.713,0,0,1,1.7-1.915,1.71,1.71,0,0,1,1.685,1.915,1.715,1.715,0,0,1-1.685,1.93A1.718,1.718,0,0,1,49.361-33.781Zm7.261,7.536H58.95v-4.442a3.283,3.283,0,0,0,2.512.98c2.282,0,3.661-1.746,3.6-4.166-.061-2.466-1.486-3.952-3.615-3.952A3.013,3.013,0,0,0,58.9-36.645l-.123-.934h-2.16ZM59-33.75a1.8,1.8,0,0,1,1.869-1.915,1.762,1.762,0,0,1,1.823,1.915,1.762,1.762,0,0,1-1.823,1.915A1.8,1.8,0,0,1,59-33.75Zm7.015-.015c0,2.435,1.516,4.044,3.768,4.044a3.54,3.54,0,0,0,3.692-2.849h-2.16a1.465,1.465,0,0,1-1.486.873,1.362,1.362,0,0,1-1.532-1.486H73.44v-.6c0-2.42-1.363-4.044-3.646-4.044C67.527-37.824,66.011-36.2,66.011-33.765Zm2.313-.873a1.255,1.255,0,0,1,1.394-1.256A1.25,1.25,0,0,1,71.1-34.638Zm11.917-2.941c-1.088-.26-2.512-.092-2.972.842l-.123-.827H74.972v7.643h2.374v-3.324a2,2,0,0,1,2.144-2.282h.751ZM84.9-29.921v-5.7h1.44v-1.961H84.9v-2.374H82.569v2.374H81.114v1.961h1.455v5.7Zm2.022,3.676c1.225.276,3.676.735,4.748-2.007l3.646-9.328H92.8l-1.807,5.009-1.823-5.009H86.6l3.278,8.088-.077.2c-.352.965-.567,1.072-1.547,1.072h-1.3Zm13.188-11.718c0,1.455.812,2.7,2.987,3.309l1.792.505c.7.2,1.042.521,1.042,1.042,0,.72-.628,1.179-1.762,1.179-1.118,0-1.807-.46-1.792-1.287h-2.42c.046,2.16,1.716,3.492,4.2,3.492,2.543,0,4.258-1.394,4.258-3.462,0-1.532-.95-2.8-2.987-3.339l-1.762-.46c-.689-.184-1.072-.49-1.072-1.1,0-.689.505-1.179,1.47-1.179.873,0,1.455.4,1.455,1.287h2.436a3.518,3.518,0,0,0-3.86-3.492C101.7-41.47,100.108-39.984,100.108-37.962Zm12.729,8.042v-5.7h1.44v-1.961h-1.44v-2.374h-2.328v2.374h-1.455v1.961h1.455v5.7Zm4.81.2a2.251,2.251,0,0,0,2.252-1.21l.153,1.011h2.083v-4.473a3.134,3.134,0,0,0-3.477-3.431c-2.068,0-3.492,1.149-3.462,2.864h1.961c-.015-.659.49-1.072,1.379-1.072.812,0,1.3.368,1.3,1.149v.123l-1.991.168c-1.7.138-2.834.9-2.834,2.42A2.369,2.369,0,0,0,117.647-29.722Zm.827-1.746c-.72,0-1.057-.291-1.057-.812,0-.475.306-.7,1.241-.8l1.195-.123v.414A1.229,1.229,0,0,1,118.474-31.468Zm8.226,1.547v-5.7h1.44v-1.961H126.7v-2.374h-2.328v2.374h-1.455v1.961h1.455v5.7Zm1.991-2.42c.061,1.547,1.287,2.619,3.217,2.619,1.853,0,3.14-.98,3.14-2.558a2.183,2.183,0,0,0-1.93-2.19l-1.363-.337c-.49-.123-.8-.245-.8-.643s.322-.659.8-.659a.812.812,0,0,1,.873.873h2.129a2.693,2.693,0,0,0-2.956-2.589c-1.7,0-2.972,1.011-2.972,2.543,0,1.026.567,1.869,2.083,2.267l1.348.352c.4.107.567.291.567.551,0,.383-.352.628-.95.628-.689,0-1.057-.322-1.057-.858Z" transform="translate(150.407 72.535)"/><g transform="translate(120 24)"><path class="a" d="M222.384,78.8l-5.657,5.649a5.155,5.155,0,1,0-6.134,8.1.631.631,0,0,1,.344.558v7.1a.625.625,0,0,1-.751.614,13.143,13.143,0,1,1,12.2-22.028Z" transform="translate(-199.82 -74.84)"/><path class="b" d="M317.091,109.3a13.089,13.089,0,0,1-1.34,5.786l-7.236-3.41a5.151,5.151,0,0,0-.824-5.909l5.657-5.649A13.094,13.094,0,0,1,317.091,109.3Z" transform="translate(-290.783 -96.162)"/><path class="c" d="M306.509,177.35a13.18,13.18,0,0,1-9.013,7.056.629.629,0,0,1-.766-.611v-7.1a.629.629,0,0,1,.343-.557,5.168,5.168,0,0,0,2.2-2.2Z" transform="translate(-281.541 -158.423)"/></g><path class="d" d="M283.742,160.153" transform="translate(-150.507 -122.402)"/><path class="a" d="M283.742,160.153" transform="translate(-150.507 -122.402)"/></g></svg>